<svg xmlns="http://www.w3.org/2000/svg" viewBox="0 0 512 512" role="img" aria-label="TubePath">
  <defs>
    <linearGradient id="tp-red" x1="0%" y1="0%" x2="80%" y2="100%">
      <stop offset="0%" stop-color="#FF2222"/>
      <stop offset="100%" stop-color="#E50000"/>
    </linearGradient>
    <clipPath id="tp-play">
      <path d="M148 118c0-14 15-22 27-15l198 116c12 7 12 24 0 31L175 366c-12 7-27-1-27-15V118z"/>
    </clipPath>
  </defs>
  <g clip-path="url(#tp-play)" transform="translate(56 56) scale(2.857)">
    <path fill="url(#tp-red)" d="M14 8h30v24H14z"/>
    <path fill="#004A8D" d="M14 32h30v24H14z"/>
    <path stroke="#fff" stroke-width="1.6" fill="none" d="M14 40c10-6 18-12 26-18"/>
  </g>
  <path
    fill="none"
    stroke="#004A8D"
    stroke-width="18"
    stroke-linecap="round"
    stroke-linejoin="round"
    d="M132 392c64-40 128-96 192-160c32-28 64-48 96-64"
  />
</svg>
