<svg xmlns="http://www.w3.org/2000/svg" viewBox="0 0 220 56" role="img" aria-label="TubePath">
  <defs>
    <linearGradient id="tp-red" x1="0%" y1="0%" x2="80%" y2="100%">
      <stop offset="0%" stop-color="#FF2222"/>
      <stop offset="100%" stop-color="#E50000"/>
    </linearGradient>
    <clipPath id="tp-play">
      <path d="M14 9.5c0-1.2 1.3-1.9 2.3-1.3l24.8 14.5c1 .6 1 2 0 2.6L16.3 39.8c-1 .6-2.3-.1-2.3-1.3V9.5z"/>
    </clipPath>
  </defs>
  <g clip-path="url(#tp-play)">
    <path fill="url(#tp-red)" d="M14 8h30v24H14z"/>
    <path fill="#004A8D" d="M14 32h30v24H14z"/>
    <path stroke="#fff" stroke-width="1.6" fill="none" d="M14 40c10-6 18-12 26-18"/>
  </g>
  <path
    fill="none"
    stroke="#4A90C8"
    stroke-width="2.4"
    stroke-linecap="round"
    stroke-linejoin="round"
    d="M12 42c8-5 16-12 24-20c4-3.5 8-6 12-8"
  />
  <text
    x="62"
    y="37"
    font-family="Roboto, system-ui, -apple-system, sans-serif"
    font-size="26"
    font-weight="700"
    fill="#F5F5F5"
  >Tube</text>
  <text
    x="122"
    y="37"
    font-family="Roboto, system-ui, -apple-system, sans-serif"
    font-size="26"
    font-weight="400"
    font-style="italic"
    fill="#9BB0C9"
  >Path</text>
</svg>
